Coordinates
version=1
nRows=38
nColumns=12
inDegrees=yes

Units are S.I. units (second, meters, Newtons, ...)
Angles are in degrees

endheader
time	SC_y	SC_z	SC_x	AC_y	AC_z	AC_x	GH_y	GH_z	GH_yy	EL_x	PS_y
       0.0               -42.5          36.79          52.68          65.48          -4.16         -14.52         -153.3          47.35         -103.3          93.22          30.17
  0.001071               -42.5          36.79          52.68          65.47          -4.16         -14.52         -153.3          47.35         -103.3          93.22          30.18
  0.002142               -42.5          36.78          52.68          65.47          -4.16         -14.51         -153.3          47.35         -103.3          93.22          30.19
  0.003213               -42.5          36.78          52.67          65.46          -4.16         -14.51         -153.3          47.35         -103.2          93.22           30.2
  0.004284               -42.5          36.78          52.67          65.46          -4.16          -14.5         -153.3          47.35         -103.2          93.22          30.21
  0.005354               -42.5          36.78          52.66          65.45         -4.161          -14.5         -153.2          47.35         -103.1          93.22          30.22
  0.006425              -42.49          36.78          52.66          65.45         -4.161         -14.49         -153.2          47.35         -103.1          93.23          30.23
  0.007496              -42.49          36.78          52.65          65.44         -4.161         -14.48         -153.2          47.35         -103.0          93.23          30.24
  0.008567              -42.49          36.78          52.65          65.44         -4.161         -14.47         -153.2          47.35         -103.0          93.23          30.26
  0.009638              -42.49          36.78          52.64          65.43         -4.161         -14.47         -153.2          47.35         -102.9          93.23          30.27
   0.01071              -42.49          36.77          52.63          65.42         -4.161         -14.46         -153.1          47.35         -102.9          93.24          30.28
   0.01178              -42.48          36.77          52.62          65.41         -4.161         -14.45         -153.1          47.35         -102.8          93.24           30.3
   0.01285              -42.48          36.77          52.62          65.41         -4.162         -14.44         -153.1          47.35         -102.7          93.24          30.32
   0.01392              -42.48          36.77          52.61           65.4         -4.162         -14.43         -153.0          47.35         -102.6          93.25          30.34
   0.01499              -42.48          36.77           52.6          65.39         -4.162         -14.41         -153.0          47.35         -102.6          93.25          30.36
   0.01606              -42.47          36.77          52.59          65.38         -4.162          -14.4         -153.0          47.35         -102.5          93.25          30.38
   0.01713              -42.47          36.76          52.58          65.36         -4.163         -14.39         -152.9          47.35         -102.4          93.26           30.4
    0.0182              -42.47          36.76          52.57          65.35         -4.163         -14.37         -152.9          47.35         -102.3          93.26          30.43
   0.01928              -42.46          36.76          52.55          65.34         -4.163         -14.35         -152.8          47.35         -102.1          93.27          30.46
   0.02035              -42.46          36.75          52.54          65.32         -4.163         -14.33         -152.8          47.35         -102.0          93.27          30.49
   0.02142              -42.45          36.75          52.53          65.31         -4.164         -14.31         -152.7          47.35         -101.9          93.28          30.52
   0.02249              -42.45          36.75          52.51          65.29         -4.164         -14.29         -152.6          47.36         -101.7          93.29          30.56
   0.02356              -42.44          36.74          52.49          65.27         -4.165         -14.27         -152.5          47.36         -101.6          93.29           30.6
   0.02463              -42.44          36.74          52.47          65.25         -4.165         -14.24         -152.5          47.36         -101.4           93.3          30.64
    0.0257              -42.43          36.73          52.45          65.22         -4.166         -14.21         -152.4          47.36         -101.1          93.31           30.7
   0.02677              -42.42          36.73          52.42           65.2         -4.166         -14.17         -152.3          47.36         -100.9          93.32          30.75
   0.02784              -42.41          36.72          52.39          65.16         -4.167         -14.13         -152.1          47.36         -100.6          93.33          30.82
   0.02891               -42.4          36.71          52.36          65.13         -4.168         -14.09         -152.0          47.36         -100.4          93.35          30.89
   0.02998              -42.39          36.71          52.32          65.09         -4.169         -14.04         -151.9          47.36         -100.0          93.36          30.97
   0.03106              -42.38           36.7          52.28          65.05          -4.17         -13.99         -151.7          47.36         -99.63          93.38          31.06
   0.03213              -42.36          36.69          52.23           65.0         -4.171         -13.92         -151.5          47.36          -99.2           93.4          31.16
    0.0332              -42.34          36.67          52.18          64.94         -4.172         -13.85         -151.3          47.37          -98.7          93.42          31.28
   0.03427              -42.32          36.66          52.12          64.87         -4.173         -13.77         -151.0          47.37         -98.12          93.44          31.42
   0.03534               -42.3          36.64          52.04          64.79         -4.175         -13.67         -150.7          47.37         -97.45          93.47          31.58
   0.03641              -42.28          36.63          51.96           64.7         -4.177         -13.56         -150.4          47.37         -96.67          93.51          31.77
   0.03748              -42.24           36.6          51.86          64.59          -4.18         -13.42         -149.9          47.38         -95.74          93.55          31.99
   0.03855              -42.21          36.58          51.74          64.47         -4.182         -13.26         -149.4          47.38         -94.65           93.6          32.26
   0.03962              -42.16          36.55          51.59          64.31         -4.186         -13.07         -148.9          47.39         -93.33          93.65          32.57
